<?xml version="1.0" encoding="UTF-8"?> <svg xmlns="http://www.w3.org/2000/svg" width="38" height="38" viewBox="0 0 38 38" fill="none"><path d="M10.3848 4C8.48273 4 6.91602 5.56672 6.91602 7.46875V31.3646C6.91602 33.2666 8.48273 34.8333 10.3848 34.8333H28.1139C30.016 34.8333 31.5827 33.2666 31.5827 31.3646V7.46875C31.5827 5.56672 30.016 4 28.1139 4H10.3848ZM10.3848 6.3125H28.1139C28.7664 6.3125 29.2702 6.81624 29.2702 7.46875V31.3646C29.2702 32.0171 28.7664 32.5208 28.1139 32.5208H10.3848C9.73226 32.5208 9.22852 32.0171 9.22852 31.3646V7.46875C9.22852 6.81624 9.73226 6.3125 10.3848 6.3125ZM14.2389 10.1667C14.0857 10.1645 13.9336 10.1928 13.7914 10.2499C13.6492 10.3071 13.5198 10.3919 13.4107 10.4995C13.3016 10.6071 13.2149 10.7353 13.1558 10.8766C13.0967 11.018 13.0662 11.1697 13.0662 11.3229C13.0662 11.4761 13.0967 11.6279 13.1558 11.7692C13.2149 11.9106 13.3016 12.0388 13.4107 12.1464C13.5198 12.2539 13.6492 12.3388 13.7914 12.3959C13.9336 12.453 14.0857 12.4813 14.2389 12.4792H18.0931C18.2463 12.4813 18.3984 12.453 18.5406 12.3959C18.6828 12.3388 18.8122 12.2539 18.9213 12.1464C19.0304 12.0388 19.1171 11.9106 19.1762 11.7692C19.2354 11.6279 19.2658 11.4761 19.2658 11.3229C19.2658 11.1697 19.2354 11.018 19.1762 10.8766C19.1171 10.7353 19.0304 10.6071 18.9213 10.4995C18.8122 10.3919 18.6828 10.3071 18.5406 10.2499C18.3984 10.1928 18.2463 10.1645 18.0931 10.1667H14.2389ZM14.2389 17.1042C14.0857 17.102 13.9336 17.1303 13.7914 17.1874C13.6492 17.2446 13.5198 17.3294 13.4107 17.437C13.3016 17.5446 13.2149 17.6728 13.1558 17.8141C13.0967 17.9555 13.0662 18.1072 13.0662 18.2604C13.0662 18.4136 13.0967 18.5654 13.1558 18.7067C13.2149 18.8481 13.3016 18.9763 13.4107 19.0839C13.5198 19.1914 13.6492 19.2763 13.7914 19.3334C13.9336 19.3905 14.0857 19.4188 14.2389 19.4167H24.2598C24.413 19.4188 24.5651 19.3905 24.7073 19.3334C24.8495 19.2763 24.9789 19.1914 25.088 19.0839C25.1971 18.9763 25.2838 18.8481 25.3429 18.7067C25.402 18.5654 25.4325 18.4136 25.4325 18.2604C25.4325 18.1072 25.402 17.9555 25.3429 17.8141C25.2838 17.6728 25.1971 17.5446 25.088 17.437C24.9789 17.3294 24.8495 17.2446 24.7073 17.1874C24.5651 17.1303 24.413 17.102 24.2598 17.1042H14.2389ZM14.2389 21.7292C14.0857 21.727 13.9336 21.7553 13.7914 21.8124C13.6492 21.8696 13.5198 21.9544 13.4107 22.062C13.3016 22.1696 13.2149 22.2978 13.1558 22.4391C13.0967 22.5805 13.0662 22.7322 13.0662 22.8854C13.0662 23.0387 13.0967 23.1904 13.1558 23.3317C13.2149 23.4731 13.3016 23.6013 13.4107 23.7089C13.5198 23.8164 13.6492 23.9013 13.7914 23.9584C13.9336 24.0155 14.0857 24.0438 14.2389 24.0417H24.2598C24.413 24.0438 24.5651 24.0155 24.7073 23.9584C24.8495 23.9013 24.9789 23.8164 25.088 23.7089C25.1971 23.6013 25.2838 23.4731 25.3429 23.3317C25.402 23.1904 25.4325 23.0387 25.4325 22.8854C25.4325 22.7322 25.402 22.5805 25.3429 22.4391C25.2838 22.2978 25.1971 22.1696 25.088 22.062C24.9789 21.9544 24.8495 21.8696 24.7073 21.8124C24.5651 21.7553 24.413 21.727 24.2598 21.7292H14.2389ZM14.2389 26.3542C14.0857 26.352 13.9336 26.3803 13.7914 26.4374C13.6492 26.4946 13.5198 26.5794 13.4107 26.687C13.3016 26.7946 13.2149 26.9228 13.1558 27.0641C13.0967 27.2055 13.0662 27.3572 13.0662 27.5104C13.0662 27.6637 13.0967 27.8154 13.1558 27.9567C13.2149 28.0981 13.3016 28.2263 13.4107 28.3339C13.5198 28.4414 13.6492 28.5263 13.7914 28.5834C13.9336 28.6405 14.0857 28.6688 14.2389 28.6667H21.1764C21.3296 28.6688 21.4818 28.6405 21.624 28.5834C21.7661 28.5263 21.8955 28.4414 22.0047 28.3339C22.1138 28.2263 22.2004 28.0981 22.2596 27.9567C22.3187 27.8154 22.3492 27.6637 22.3492 27.5104C22.3492 27.3572 22.3187 27.2055 22.2596 27.0641C22.2004 26.9228 22.1138 26.7946 22.0047 26.687C21.8955 26.5794 21.7661 26.4946 21.624 26.4374C21.4818 26.3803 21.3296 26.352 21.1764 26.3542H14.2389Z" fill="#00B487"></path></svg> 