<?xml version="1.0" encoding="UTF-8"?> <svg xmlns="http://www.w3.org/2000/svg" width="98" height="24" viewBox="0 0 98 24" fill="none"><path d="M25.7698 8.5061H35.6215V10.3523H31.7478V20.7304H29.6177V10.3523H25.7612V8.5061H25.7698ZM35.2006 11.8792H37.0215V13.5873H37.0558C37.116 13.3458 37.2276 13.1129 37.3908 12.8886C37.554 12.6643 37.7515 12.4486 37.9835 12.2674C38.2154 12.0776 38.473 11.931 38.7565 11.8102C39.0399 11.6981 39.3319 11.6377 39.624 11.6377C39.8473 11.6377 40.0105 11.6463 40.0964 11.6549C40.1823 11.6635 40.2682 11.6808 40.3626 11.6894V13.5701C40.2252 13.5442 40.0878 13.527 39.9418 13.5097C39.7958 13.4924 39.6583 13.4838 39.5209 13.4838C39.1945 13.4838 38.8853 13.5528 38.5933 13.6822C38.3013 13.8116 38.0522 14.0101 37.8374 14.2602C37.6227 14.519 37.4509 14.8296 37.3221 15.2092C37.1933 15.5888 37.1331 16.0201 37.1331 16.5119V20.7218H35.192V11.8792H35.2006ZM49.2867 20.7304H47.3799V19.4968H47.3456C47.1051 19.9454 46.7529 20.2991 46.2805 20.5665C45.8081 20.8339 45.3271 20.972 44.8376 20.972C43.678 20.972 42.8363 20.6873 42.3209 20.1093C41.8056 19.5313 41.5479 18.6599 41.5479 17.4953V11.8792H43.4891V17.3055C43.4891 18.0819 43.6351 18.6341 43.9357 18.9533C44.2277 19.2725 44.6486 19.4364 45.1811 19.4364C45.5934 19.4364 45.9284 19.376 46.2032 19.2466C46.4781 19.1172 46.7014 18.9533 46.8646 18.7376C47.0364 18.5305 47.1566 18.2717 47.2339 17.9784C47.3112 17.6851 47.3456 17.3659 47.3456 17.0208V11.8878H49.2867V20.7304ZM52.5935 17.8922C52.6536 18.4615 52.8684 18.8584 53.2377 19.0913C53.6156 19.3156 54.0623 19.4364 54.5862 19.4364C54.7666 19.4364 54.9727 19.4191 55.2046 19.3932C55.4365 19.3674 55.6598 19.307 55.8574 19.2293C56.0635 19.1517 56.2267 19.0309 56.3641 18.8756C56.493 18.7203 56.5531 18.5219 56.5445 18.2717C56.5359 18.0216 56.4414 17.8145 56.2696 17.6592C56.0979 17.4953 55.8831 17.3745 55.6169 17.271C55.3506 17.1761 55.05 17.0899 54.7064 17.0208C54.3629 16.9518 54.0193 16.8742 53.6672 16.7965C53.3064 16.7189 52.9543 16.6154 52.6193 16.5032C52.2843 16.3911 51.9837 16.2358 51.7174 16.0374C51.4512 15.8476 51.2364 15.5974 51.0818 15.2955C50.9186 14.9935 50.8413 14.6226 50.8413 14.174C50.8413 13.6909 50.9616 13.294 51.1935 12.9662C51.4254 12.6384 51.726 12.3796 52.0782 12.1812C52.4389 11.9827 52.834 11.8447 53.2721 11.7584C53.7101 11.6808 54.131 11.6377 54.5261 11.6377C54.9813 11.6377 55.4193 11.6894 55.8316 11.7843C56.2439 11.8792 56.6218 12.0345 56.9568 12.2588C57.2917 12.4745 57.5666 12.7592 57.7899 13.1042C58.0132 13.4493 58.1507 13.872 58.2108 14.3638H56.1838C56.0893 13.8979 55.8831 13.5787 55.5482 13.4234C55.2132 13.2595 54.8267 13.1819 54.3972 13.1819C54.2598 13.1819 54.0966 13.1905 53.9076 13.2164C53.7187 13.2423 53.5469 13.2854 53.3751 13.3458C53.2119 13.4062 53.0745 13.5011 52.9543 13.6218C52.8426 13.7426 52.7825 13.8979 52.7825 14.0963C52.7825 14.3379 52.8684 14.5277 53.0316 14.6743C53.1947 14.821 53.4095 14.9418 53.6757 15.0453C53.942 15.1402 54.2426 15.2264 54.5862 15.2955C54.9297 15.3645 55.2819 15.4421 55.6426 15.5198C55.9948 15.5974 56.3384 15.7009 56.6819 15.8131C57.0255 15.9252 57.3261 16.0805 57.5924 16.2789C57.8586 16.4773 58.0734 16.7189 58.2366 17.0122C58.3997 17.3055 58.4856 17.6765 58.4856 18.1078C58.4856 18.6341 58.3654 19.074 58.1249 19.445C57.8844 19.8073 57.5752 20.1093 57.1973 20.3336C56.8193 20.5579 56.3899 20.7304 55.9261 20.8339C55.4623 20.9374 54.9985 20.9892 54.5432 20.9892C53.9849 20.9892 53.4696 20.9288 52.9972 20.7994C52.5248 20.67 52.1125 20.4802 51.769 20.23C51.4254 19.9712 51.1505 19.652 50.953 19.2725C50.7554 18.8929 50.6524 18.4356 50.6352 17.9094H52.5935V17.8922ZM59.001 11.8792H60.4697V9.22214H62.4109V11.8792H64.163V13.3372H62.4109V18.0647C62.4109 18.2717 62.4194 18.4443 62.4366 18.5996C62.4538 18.7462 62.4967 18.8756 62.5569 18.9791C62.617 19.0827 62.7115 19.1603 62.8403 19.2121C62.9691 19.2638 63.1323 19.2897 63.3557 19.2897C63.4931 19.2897 63.6305 19.2897 63.7679 19.2811C63.9054 19.2725 64.0428 19.2552 64.1802 19.2207V20.7304C63.9655 20.7563 63.7508 20.7735 63.5532 20.7994C63.3471 20.8253 63.1409 20.8339 62.9262 20.8339C62.4109 20.8339 61.9986 20.7822 61.6894 20.6873C61.3802 20.5924 61.1311 20.4457 60.9593 20.2559C60.7789 20.0661 60.6673 19.8332 60.5986 19.5485C60.5384 19.2638 60.4955 18.936 60.4869 18.5737V13.3544H59.0182V11.8792H59.001ZM65.5373 11.8792H67.3754V13.0784H67.4097C67.6846 12.5607 68.0625 12.1984 68.5521 11.9741C69.0416 11.7498 69.5656 11.6377 70.141 11.6377C70.8368 11.6377 71.438 11.7584 71.9533 12.0086C72.4687 12.2502 72.8981 12.5866 73.2417 13.018C73.5853 13.4493 73.8344 13.9497 74.0061 14.519C74.1779 15.0884 74.2638 15.7009 74.2638 16.3479C74.2638 16.9432 74.1865 17.5212 74.0319 18.0733C73.8773 18.6341 73.6454 19.1258 73.3362 19.5571C73.027 19.9885 72.6319 20.3249 72.1509 20.5837C71.6699 20.8426 71.1116 20.972 70.4588 20.972C70.1754 20.972 69.892 20.9461 69.6085 20.8943C69.3251 20.8426 69.0502 20.7563 68.7925 20.6441C68.5349 20.532 68.2858 20.3853 68.0711 20.2042C67.8478 20.023 67.6674 19.816 67.5128 19.583H67.4784V24H65.5373V11.8792ZM72.3227 16.3134C72.3227 15.9166 72.2711 15.5284 72.1681 15.1488C72.065 14.7692 71.9104 14.4414 71.7043 14.1481C71.4981 13.8548 71.2404 13.6218 70.9398 13.4493C70.6306 13.2768 70.2785 13.1819 69.8834 13.1819C69.0674 13.1819 68.449 13.4666 68.0367 14.0359C67.6244 14.6053 67.4183 15.3645 67.4183 16.3134C67.4183 16.762 67.4698 17.1761 67.5815 17.5557C67.6931 17.9353 67.8478 18.2631 68.0711 18.5392C68.2858 18.8152 68.5435 19.0309 68.8441 19.1862C69.1447 19.3501 69.4969 19.4277 69.892 19.4277C70.3386 19.4277 70.7079 19.3328 71.0171 19.1517C71.3263 18.9705 71.5754 18.729 71.773 18.4443C71.9705 18.151 72.1165 17.8231 72.2024 17.4522C72.2797 17.0812 72.3227 16.7016 72.3227 16.3134ZM75.7497 8.5061H77.6909V10.3523H75.7497V8.5061ZM75.7497 11.8792H77.6909V20.7304H75.7497V11.8792ZM79.4259 8.5061H81.367V20.7304H79.4259V8.5061ZM87.3192 20.972C86.6149 20.972 85.9879 20.8512 85.4382 20.6183C84.8885 20.3853 84.4247 20.0575 84.0382 19.652C83.6603 19.238 83.3683 18.7462 83.1707 18.1768C82.9732 17.6075 82.8701 16.9777 82.8701 16.2962C82.8701 15.6233 82.9732 15.0021 83.1707 14.4328C83.3683 13.8634 83.6603 13.3717 84.0382 12.9576C84.4161 12.5435 84.8885 12.2243 85.4382 11.9914C85.9879 11.7584 86.6149 11.6377 87.3192 11.6377C88.0235 11.6377 88.6505 11.7584 89.2002 11.9914C89.75 12.2243 90.2138 12.5521 90.6003 12.9576C90.9782 13.3717 91.2702 13.8634 91.4678 14.4328C91.6653 15.0021 91.7684 15.6233 91.7684 16.2962C91.7684 16.9777 91.6653 17.6075 91.4678 18.1768C91.2702 18.7462 90.9782 19.238 90.6003 19.652C90.2224 20.0661 89.75 20.3853 89.2002 20.6183C88.6505 20.8512 88.0235 20.972 87.3192 20.972ZM87.3192 19.4277C87.7487 19.4277 88.1266 19.3328 88.4444 19.1517C88.7622 18.9705 89.0199 18.729 89.226 18.4356C89.4322 18.1423 89.5782 17.8059 89.6812 17.4349C89.7757 17.064 89.8273 16.6844 89.8273 16.2962C89.8273 15.9166 89.7757 15.5456 89.6812 15.1661C89.5868 14.7865 89.4322 14.4587 89.226 14.1653C89.0199 13.872 88.7622 13.6391 88.4444 13.4579C88.1266 13.2768 87.7487 13.1819 87.3192 13.1819C86.8898 13.1819 86.5119 13.2768 86.1941 13.4579C85.8763 13.6391 85.6186 13.8807 85.4125 14.1653C85.2063 14.4587 85.0603 14.7865 84.9572 15.1661C84.8628 15.5456 84.8112 15.9166 84.8112 16.2962C84.8112 16.6844 84.8628 17.064 84.9572 17.4349C85.0517 17.8059 85.2063 18.1423 85.4125 18.4356C85.6186 18.729 85.8763 18.9705 86.1941 19.1517C86.5119 19.3415 86.8898 19.4277 87.3192 19.4277ZM92.3353 11.8792H93.804V9.22214H95.7451V11.8792H97.4973V13.3372H95.7451V18.0647C95.7451 18.2717 95.7537 18.4443 95.7709 18.5996C95.7881 18.7462 95.831 18.8756 95.8912 18.9791C95.9513 19.0827 96.0458 19.1603 96.1746 19.2121C96.3034 19.2638 96.4666 19.2897 96.6899 19.2897C96.8274 19.2897 96.9648 19.2897 97.1022 19.2811C97.2396 19.2725 97.3771 19.2552 97.5145 19.2207V20.7304C97.2998 20.7563 97.085 20.7735 96.8875 20.7994C96.6814 20.8253 96.4752 20.8339 96.2605 20.8339C95.7451 20.8339 95.3329 20.7822 95.0237 20.6873C94.7145 20.5924 94.4654 20.4457 94.2936 20.2559C94.1132 20.0661 94.0016 19.8332 93.9329 19.5485C93.8727 19.2638 93.8298 18.936 93.8212 18.5737V13.3544H92.3525V11.8792H92.3353Z" fill="white"></path><path d="M23.5022 8.50611H14.6039L11.8554 0L9.09832 8.50611L0.200012 8.49748L7.40626 13.7599L4.64916 22.2574L11.8554 17.0036L19.0531 22.2574L16.3046 13.7599L23.5022 8.50611Z" fill="#00B67A"></path><path d="M16.923 15.6837L16.3046 13.7599L11.8554 17.0036L16.923 15.6837Z" fill="#005128"></path></svg> 