<?xml version="1.0" encoding="UTF-8"?> <svg xmlns="http://www.w3.org/2000/svg" width="93" height="24" viewBox="0 0 93 24" fill="none"><path d="M0 9.54847H8.525H13.702V4.41797L0 9.54847Z" fill="#FF9D28"></path><path d="M13.702 4.418V22.553L20.181 2L13.702 4.418Z" fill="#68C5ED"></path><path d="M13.702 9.54846H8.52502L13.702 22.5375V9.54846Z" fill="#044D80"></path><path d="M0 9.54846L9.858 12.881L8.525 9.54846H0Z" fill="#E54747"></path><path d="M31.403 17.7635C31.3255 17.841 31.2015 17.934 31.031 18.0425C30.8605 18.151 30.628 18.275 30.349 18.3835C30.07 18.492 29.729 18.6005 29.3105 18.678C28.9075 18.7555 28.4425 18.802 27.9155 18.802C26.908 18.802 26.0245 18.6315 25.2805 18.3215C24.5365 17.996 23.932 17.5465 23.4515 16.9575C22.971 16.3685 22.6145 15.6865 22.3975 14.896C22.165 14.1055 22.0565 13.222 22.0565 12.2765C22.0565 11.331 22.1805 10.4475 22.4285 9.64146C22.6765 8.83546 23.033 8.13796 23.529 7.54896C24.0095 6.95996 24.6295 6.49496 25.358 6.16946C26.0865 5.84396 26.9545 5.67346 27.9465 5.67346C28.427 5.67346 28.8765 5.71996 29.264 5.79746C29.6515 5.89046 30.008 5.98346 30.3025 6.10746C30.597 6.23146 30.845 6.35546 31.031 6.47946C31.2325 6.60346 31.372 6.72746 31.465 6.80496C31.5735 6.89796 31.682 7.02196 31.7595 7.16146C31.837 7.30096 31.8835 7.45596 31.8835 7.61096C31.8835 7.85896 31.7905 8.10696 31.6045 8.35496C31.4185 8.60296 31.217 8.83546 30.9845 9.05246C30.8295 8.89746 30.659 8.74246 30.473 8.58746C30.287 8.43246 30.07 8.29296 29.8375 8.16896C29.605 8.04496 29.3415 7.95196 29.047 7.87446C28.7525 7.79696 28.427 7.75046 28.055 7.75046C27.4195 7.75046 26.877 7.87446 26.443 8.13796C26.009 8.40146 25.668 8.72696 25.4045 9.14546C25.141 9.56396 24.955 10.029 24.8465 10.556C24.738 11.083 24.676 11.6255 24.676 12.1835C24.676 12.7725 24.738 13.3305 24.8465 13.873C24.955 14.4155 25.1565 14.8805 25.4355 15.299C25.7145 15.7175 26.071 16.043 26.5205 16.291C26.97 16.539 27.5125 16.663 28.179 16.663C28.5355 16.663 28.8455 16.6165 29.14 16.539C29.4345 16.446 29.698 16.3375 29.915 16.2135C30.1475 16.0895 30.3335 15.95 30.504 15.826C30.6745 15.6865 30.814 15.5625 30.9225 15.4695C31 15.5625 31.0775 15.671 31.186 15.795C31.2945 15.919 31.3875 16.0585 31.465 16.1825C31.558 16.322 31.62 16.4615 31.6975 16.601C31.7595 16.7405 31.7905 16.8645 31.7905 16.973C31.7905 17.1435 31.7595 17.2675 31.6975 17.3915C31.6355 17.5 31.527 17.624 31.403 17.7635ZM41.075 16.322C41.075 17.314 41.2145 18.0425 41.509 18.492C41.2765 18.585 41.075 18.647 40.8735 18.678C40.672 18.709 40.4705 18.74 40.2535 18.74C39.804 18.74 39.463 18.647 39.2305 18.4765C38.998 18.306 38.843 18.0425 38.781 17.717C38.502 18.0115 38.1455 18.2595 37.6805 18.461C37.231 18.6625 36.673 18.7555 36.022 18.7555C35.681 18.7555 35.34 18.709 34.999 18.616C34.658 18.523 34.348 18.368 34.069 18.151C33.79 17.934 33.573 17.655 33.387 17.2985C33.2165 16.942 33.1235 16.508 33.1235 15.9965C33.1235 15.361 33.2785 14.834 33.5885 14.431C33.8985 14.028 34.286 13.718 34.751 13.4855C35.216 13.253 35.7275 13.098 36.2545 13.005C36.797 12.912 37.293 12.8655 37.7425 12.8345C37.8975 12.819 38.037 12.819 38.192 12.819H38.595V12.478C38.595 11.9975 38.471 11.6565 38.2075 11.4395C37.944 11.238 37.5255 11.1295 36.952 11.1295C36.4095 11.1295 35.929 11.2225 35.5105 11.393C35.092 11.5635 34.6735 11.765 34.2705 11.9975C34.1 11.7805 33.945 11.548 33.852 11.2845C33.7435 11.021 33.697 10.835 33.697 10.711C33.697 10.5405 33.79 10.37 33.9915 10.1995C34.193 10.029 34.4565 9.88946 34.7975 9.74996C35.1385 9.61046 35.526 9.51746 35.9755 9.42446C36.4095 9.34696 36.8745 9.30046 37.3705 9.30046C38.0525 9.30046 38.626 9.36246 39.091 9.50196C39.556 9.64146 39.9435 9.85846 40.238 10.1375C40.5325 10.432 40.7495 10.7885 40.8735 11.2225C40.9975 11.6565 41.0595 12.168 41.0595 12.7415L41.075 16.322ZM38.657 14.1365H38.3935C38.3005 14.1365 38.223 14.1365 38.13 14.152C37.82 14.183 37.51 14.214 37.2 14.2605C36.89 14.307 36.611 14.4 36.3785 14.524C36.146 14.648 35.9445 14.8185 35.7895 15.02C35.6345 15.2215 35.557 15.485 35.557 15.795C35.557 16.1515 35.65 16.446 35.8515 16.694C36.053 16.942 36.394 17.066 36.8745 17.066C37.107 17.066 37.3395 17.035 37.5565 16.973C37.7735 16.911 37.9595 16.8335 38.13 16.725C38.3005 16.6165 38.4245 16.508 38.5175 16.3995C38.6105 16.2755 38.657 16.167 38.657 16.074V14.1365ZM45.7715 10.4165C45.973 10.184 46.283 9.93596 46.717 9.68796C47.151 9.43996 47.678 9.31596 48.329 9.31596C48.794 9.31596 49.2435 9.39346 49.662 9.54846C50.0805 9.70346 50.4525 9.96696 50.778 10.308C51.1035 10.6645 51.367 11.1295 51.553 11.703C51.7545 12.2765 51.8475 12.9895 51.8475 13.842C51.8475 14.8185 51.739 15.64 51.5065 16.2755C51.274 16.911 50.995 17.4225 50.6385 17.779C50.282 18.151 49.879 18.4145 49.445 18.5695C49.011 18.7245 48.5615 18.802 48.1275 18.802C47.771 18.802 47.4455 18.7555 47.182 18.678C46.9185 18.6005 46.686 18.5075 46.5 18.399C46.314 18.306 46.1745 18.1975 46.066 18.1045C45.973 18.0115 45.8955 17.934 45.88 17.903V22.553H43.307V9.59496C43.369 9.57946 43.4465 9.56396 43.5395 9.56396C43.617 9.54846 43.71 9.54846 43.803 9.53296C43.9115 9.53296 44.02 9.51746 44.1595 9.51746C44.578 9.51746 44.9345 9.57946 45.229 9.71896C45.508 9.85846 45.694 10.091 45.7715 10.4165ZM49.1815 13.904C49.1815 13.532 49.1505 13.1755 49.0885 12.85C49.0265 12.5245 48.918 12.2455 48.7785 11.9975C48.639 11.765 48.4375 11.579 48.1895 11.4395C47.9415 11.3 47.647 11.238 47.2905 11.238C46.7635 11.238 46.3915 11.3465 46.19 11.5325C45.9885 11.734 45.88 11.951 45.88 12.199V16.2135C45.973 16.322 46.159 16.4305 46.4225 16.57C46.686 16.7095 46.9805 16.7715 47.3215 16.7715C47.957 16.7715 48.422 16.5235 48.732 16.012C49.0265 15.516 49.1815 14.8185 49.1815 13.904ZM53.8315 17.159C53.7385 16.911 53.692 16.6475 53.661 16.3685C53.63 16.0895 53.63 15.8105 53.63 15.5315V6.77396C53.723 6.75846 53.816 6.74296 53.909 6.74296C54.002 6.72746 54.095 6.72746 54.188 6.71196C54.281 6.71196 54.3895 6.69646 54.4825 6.69646C54.684 6.69646 54.8855 6.71196 55.087 6.75846C55.2885 6.78946 55.4745 6.86696 55.6295 6.99096C55.8 7.09946 55.924 7.25446 56.0325 7.45596C56.1255 7.65746 56.1875 7.90546 56.1875 8.21546V9.56396H58.838V11.4705H56.203V15.5005C56.203 16.384 56.5595 16.818 57.2725 16.818C57.443 16.818 57.6135 16.787 57.7685 16.7405C57.9235 16.6785 58.063 16.6165 58.187 16.5545C58.311 16.4925 58.4195 16.415 58.5125 16.3375C58.6055 16.26 58.6675 16.198 58.714 16.167C58.9 16.446 59.055 16.6785 59.148 16.88C59.241 17.0815 59.303 17.2675 59.303 17.4535C59.303 17.624 59.241 17.779 59.1015 17.934C58.962 18.089 58.776 18.244 58.5435 18.368C58.311 18.5075 58.0165 18.616 57.6755 18.6935C57.3345 18.771 56.9625 18.8175 56.5595 18.8175C55.7845 18.8175 55.1645 18.6625 54.7305 18.368C54.3275 18.0425 54.0175 17.655 53.8315 17.159ZM65.348 16.911C65.658 16.911 65.937 16.88 66.185 16.8025C66.4175 16.7405 66.6345 16.6475 66.836 16.5545C67.022 16.4615 67.1925 16.3375 67.332 16.229C67.4715 16.105 67.5955 15.9965 67.704 15.9035C67.859 16.0895 68.014 16.3375 68.1845 16.632C68.355 16.9265 68.4325 17.1745 68.4325 17.3605C68.4325 17.6395 68.2775 17.8875 67.9675 18.12C67.704 18.3215 67.332 18.492 66.836 18.647C66.3555 18.7865 65.782 18.864 65.131 18.864C64.542 18.864 63.953 18.7865 63.3795 18.6315C62.806 18.4765 62.2945 18.213 61.845 17.841C61.3955 17.469 61.039 16.9575 60.76 16.322C60.481 15.6865 60.3415 14.8805 60.3415 13.9195C60.3415 13.129 60.4655 12.447 60.7135 11.8735C60.9615 11.3 61.287 10.8195 61.69 10.4475C62.093 10.0755 62.558 9.79646 63.085 9.61046C63.5965 9.43996 64.1235 9.34696 64.666 9.34696C65.3635 9.34696 65.968 9.45546 66.464 9.67246C66.96 9.88946 67.3475 10.184 67.6575 10.556C67.9675 10.928 68.1845 11.3465 68.324 11.827C68.4635 12.3075 68.5255 12.8035 68.5255 13.3305V13.594C68.5255 13.7025 68.5255 13.7955 68.51 13.9195C68.51 14.028 68.4945 14.1365 68.4945 14.245C68.4945 14.3535 68.479 14.431 68.4635 14.493H62.899C62.9455 15.1905 63.1625 15.764 63.55 16.229C63.922 16.6785 64.5265 16.911 65.348 16.911ZM66.216 13.0825C66.216 12.478 66.092 11.982 65.8595 11.61C65.627 11.238 65.2085 11.0365 64.604 11.0365C64.077 11.0365 63.674 11.2225 63.364 11.579C63.054 11.9355 62.899 12.4315 62.899 13.0825H66.216ZM73.005 10.463C73.0825 10.3545 73.1755 10.2305 73.2995 10.091C73.4235 9.95146 73.5785 9.82746 73.7645 9.71896C73.9505 9.61046 74.152 9.51746 74.369 9.43996C74.586 9.36246 74.8185 9.33146 75.082 9.33146C75.237 9.33146 75.392 9.34696 75.5625 9.36246C75.733 9.39346 75.888 9.43996 76.0275 9.50196C76.167 9.56396 76.291 9.65696 76.384 9.78096C76.477 9.90496 76.5235 10.0445 76.5235 10.215C76.5235 10.494 76.4615 10.804 76.322 11.1605C76.1825 11.517 76.043 11.827 75.9035 12.075C75.6865 11.9045 75.4695 11.765 75.268 11.672C75.051 11.579 74.803 11.5325 74.5085 11.5325C74.121 11.5325 73.7955 11.641 73.532 11.8735C73.2685 12.106 73.129 12.3695 73.129 12.695V18.802H70.556V9.57946C70.618 9.56396 70.6955 9.54846 70.7885 9.54846C70.866 9.53296 70.959 9.53296 71.052 9.51746C71.145 9.51746 71.269 9.50196 71.4085 9.50196C71.8115 9.50196 72.168 9.57946 72.4625 9.73446C72.7415 9.90496 72.9275 10.1375 73.005 10.463ZM80.3055 10.463C80.383 10.3545 80.476 10.2305 80.6 10.091C80.724 9.95146 80.879 9.82746 81.065 9.71896C81.251 9.61046 81.4525 9.51746 81.6695 9.43996C81.8865 9.36246 82.119 9.33146 82.3825 9.33146C82.5375 9.33146 82.6925 9.34696 82.863 9.36246C83.0335 9.39346 83.1885 9.43996 83.328 9.50196C83.4675 9.56396 83.5915 9.65696 83.6845 9.78096C83.7775 9.90496 83.824 10.0445 83.824 10.215C83.824 10.494 83.762 10.804 83.6225 11.1605C83.483 11.517 83.3435 11.827 83.204 12.075C82.987 11.9045 82.77 11.765 82.5685 11.672C82.3515 11.579 82.1035 11.5325 81.809 11.5325C81.4215 11.5325 81.096 11.641 80.8325 11.8735C80.569 12.106 80.4295 12.3695 80.4295 12.695V18.802H77.8565V9.57946C77.9185 9.56396 77.996 9.54846 78.089 9.54846C78.1665 9.53296 78.2595 9.53296 78.3525 9.51746C78.4455 9.51746 78.5695 9.50196 78.709 9.50196C79.112 9.50196 79.4685 9.57946 79.763 9.73446C80.042 9.90496 80.228 10.1375 80.3055 10.463ZM92.566 16.322C92.566 17.314 92.7055 18.0425 93 18.492C92.7675 18.585 92.566 18.647 92.3645 18.678C92.163 18.709 91.9615 18.74 91.7445 18.74C91.295 18.74 90.954 18.647 90.7215 18.4765C90.489 18.306 90.334 18.0425 90.272 17.717C89.993 18.0115 89.6365 18.2595 89.1715 18.461C88.722 18.6625 88.164 18.7555 87.513 18.7555C87.172 18.7555 86.831 18.709 86.49 18.616C86.149 18.523 85.839 18.368 85.56 18.151C85.281 17.934 85.064 17.655 84.878 17.2985C84.7075 16.942 84.6145 16.508 84.6145 15.9965C84.6145 15.361 84.7695 14.834 85.0795 14.431C85.3895 14.028 85.777 13.718 86.242 13.4855C86.707 13.253 87.2185 13.098 87.7455 13.005C88.288 12.912 88.784 12.8655 89.2335 12.8345C89.3885 12.819 89.528 12.819 89.683 12.819H90.086V12.478C90.086 11.9975 89.962 11.6565 89.6985 11.4395C89.435 11.238 89.0165 11.1295 88.443 11.1295C87.9005 11.1295 87.42 11.2225 87.0015 11.393C86.583 11.5635 86.1645 11.765 85.7615 11.9975C85.591 11.7805 85.436 11.548 85.343 11.2845C85.2345 11.021 85.188 10.835 85.188 10.711C85.188 10.5405 85.281 10.37 85.4825 10.1995C85.684 10.029 85.9475 9.88946 86.2885 9.74996C86.6295 9.61046 87.017 9.51746 87.4665 9.42446C87.9005 9.34696 88.3655 9.30046 88.8615 9.30046C89.5435 9.30046 90.117 9.36246 90.582 9.50196C91.047 9.64146 91.4345 9.85846 91.729 10.1375C92.0235 10.432 92.2405 10.7885 92.3645 11.2225C92.4885 11.6565 92.5505 12.168 92.5505 12.7415L92.566 16.322ZM90.148 14.1365H89.8845C89.7915 14.1365 89.714 14.1365 89.621 14.152C89.311 14.183 89.001 14.214 88.691 14.2605C88.381 14.307 88.102 14.4 87.8695 14.524C87.637 14.648 87.4355 14.8185 87.2805 15.02C87.1255 15.2215 87.048 15.485 87.048 15.795C87.048 16.1515 87.141 16.446 87.3425 16.694C87.544 16.942 87.885 17.066 88.3655 17.066C88.598 17.066 88.8305 17.035 89.0475 16.973C89.2645 16.911 89.4505 16.8335 89.621 16.725C89.7915 16.6165 89.9155 16.508 90.0085 16.3995C90.1015 16.2755 90.148 16.167 90.148 16.074V14.1365Z" fill="white"></path></svg> 